<svg xmlns="http://www.w3.org/2000/svg" viewBox="0 0 493.85 167.37"><defs><style>.cls-1{fill:#fff;}</style></defs><title>Asset 28</title><g id="Layer_2" data-name="Layer 2"><g id="LOGOS"><path class="cls-1" d="M219.48,24.14c-1.07-10.37-15.38-12.7-15.38-12.7.18,7.34-12.87,35.41-25.57,62.41-1.61-2.86-2.68-3-3-3a131.17,131.17,0,0,0-36.83,8.41c5.54-12.88,10.55-25.4,14.48-35.95,3-8,7.69-17.34,7.16-26.28a21.63,21.63,0,0,0-2.51-8.59c-2.14-3.93-5.9-7-12.52-8.22a16.2,16.2,0,0,0-3-.18C119.7,1.43,69.64,50.78,71.07,73.85a10.71,10.71,0,0,0,3.53,7.67,68.41,68.41,0,0,1-24.07,2.77c3.34-3.63,4.36-8.37,4.06-13.55C54.11,62.36,49.49,56,42.41,52.1A1.05,1.05,0,0,0,42.3,52l0,0h0a1.69,1.69,0,0,0-2.44,1A1.3,1.3,0,0,0,40,54.31c1.4,3.31-.21,6.14-.8,9.37A20.31,20.31,0,0,0,39.75,73a36,36,0,0,0,2.47,6.74,23.41,23.41,0,0,0-12.77-6C19.05,72.37,11.37,76.85,1.61,79a1.5,1.5,0,0,0-1.14,1,1.67,1.67,0,0,0,.18,2.48C9.27,89,22.78,94.72,34.16,92.7c-6.34,5.56-11.41,12.12-13.07,21a1.25,1.25,0,0,0,.58,1.4,1.36,1.36,0,0,0,1.81.32c6.94-3.94,15.34-3.22,20.57-10.16a21.68,21.68,0,0,0,4.31-17.84A72.34,72.34,0,0,0,77.82,83.9a1.42,1.42,0,0,0,.37-.18,20.34,20.34,0,0,0,3.25,1C92.17,52.39,124.35,15,145.27,13.41c-4.11,11.45-19.49,47-32.72,79.4-12,8-18.06,15.55-18.06,15.55,2.5,7.33,5,10.37,7.15,11.63C95,136.08,90.56,148.6,90.38,152.17a15.15,15.15,0,0,0,0,2.86c.36,5.73,3.75,11.45,14,12.34,2.32-12,13.23-37.91,24.85-65.45,19-12,35-15.37,43.81-16.27-9.83,21.1-18.24,39.34-18.6,44.53a3.83,3.83,0,0,0,0,2c.54,10.91,13.42,12.34,13.42,12.34C176,116.23,220.2,34,219.48,24.14Z"/><path class="cls-1" d="M361.64,132.68c-1.08,0-1.79-.89-1.79-2.68a20.88,20.88,0,0,1,1.43-6.8,145.72,145.72,0,0,1,6.26-14.48C375.76,95,382,83.33,383.09,79.57a10,10,0,0,0,.54-3.22c0-9.12-12.34-12-12.34-12a24.49,24.49,0,0,1-2,8.23,7.25,7.25,0,0,0-2.51-3.22A13.9,13.9,0,0,0,357,65.45c-14.31,0-30.58,19.85-35.41,29.32a67.91,67.91,0,0,0-5.15,12.48c-2,2.16-4.13,4.42-6.29,6.66-9.66,9.65-18.78,19-23.43,19a3.34,3.34,0,0,1-1.25-.36,4.92,4.92,0,0,1-1.25-3.75,36.72,36.72,0,0,1,.72-5,105,105,0,0,1,5.9-17.7C303,77.78,319.44,42.38,320.69,35.41a7.35,7.35,0,0,0,.18-2c0-10.19-13.77-12-13.77-12v1.25c0,10-10.55,33.08-18.06,49.17-2,4.13-4,8.24-5.93,12.29-6.33,3.54-15,8.07-20.54,9.53a42.22,42.22,0,0,0-3.93-15.56c-3.75-7.87-10.73-13.59-20-13.59h-.89c-24.14.72-39.16,26.47-39.16,48.82a40.32,40.32,0,0,0,.89,9.3c2,8.22,6.8,15.73,14.49,19.13A25.8,25.8,0,0,0,225,144.48c17,0,32-18.42,36.66-37.37A55.31,55.31,0,0,0,276.9,98.2c-3.53,8.8-5.92,17.06-5.92,24.29s2.5,13.41,8.4,18.24a11.47,11.47,0,0,0,7.69,2.86,15.56,15.56,0,0,0,6.44-1.61c7-3,14.52-10.12,20.87-18.08A23.63,23.63,0,0,0,319.26,137c2.86,3.58,5.72,5,8.4,5,5.9,0,10.73-5.9,13.23-8.23.9-.71,3.4-3.93,6.62-8,.72,8.22,5,16.45,13.77,17.7h1.07c16.09,0,42.38-38.09,42.38-49a3.48,3.48,0,0,0-.18-1.43C403.66,93,370,132.68,361.64,132.68Zm-134.29-2.86h-1.43c-8.41-.89-11.8-7.51-11.8-15.38,0-9.12,4.29-20,10.19-26.28v1.43a25.23,25.23,0,0,0,3.4,12c4.47,7.51,10.55,10.55,17.34,10.55a13.42,13.42,0,0,0,2.68-.18C243.44,121.77,236.29,129.82,227.35,129.82Zm24.5-30.94a10.12,10.12,0,0,1-3.22.54c-6.62,0-10.2-7.15-10.2-13,0-4.29,1.79-7.69,5.37-7.69h.71c6.26.36,7.69,8.22,7.69,14.66A47.37,47.37,0,0,1,251.85,98.88Zm74.74,32.55h-.18c-1.07-.18-1.61-1.25-1.61-3,0-6.08,5.36-19.67,12.7-30.58,8.94-12.87,20.38-22.35,24.67-22.35a1.35,1.35,0,0,1,.9.18c1.61,1.07,2.14,3.4,2.32,5.9-1.61,3.4-6.62,12-6.62,12C349.3,107.29,332,131.43,326.59,131.43Z"/><path class="cls-1" d="M493.21,85c-8.63-6.64-22.14-12.33-33.51-10.31,6.33-5.56,11.41-12.11,13.07-21a1.28,1.28,0,0,0-.58-1.4,1.36,1.36,0,0,0-1.81-.32C463.43,55.92,455,55.2,449.8,62.14A21.68,21.68,0,0,0,445.49,80,72.36,72.36,0,0,0,416,83.47c-2,.66-.54,3.58,1.42,2.93a68.42,68.42,0,0,1,25.87-3.32c-3.34,3.63-4.36,8.37-4.06,13.55.49,8.38,5.11,14.73,12.19,18.64l.1.07.05,0h0a1.69,1.69,0,0,0,2.43-1,1.3,1.3,0,0,0-.16-1.34c-1.4-3.31.21-6.14.8-9.37a20.44,20.44,0,0,0-.58-9.35,36,36,0,0,0-2.48-6.74,23.37,23.37,0,0,0,12.78,6.05c10.4,1.35,18.07-3.13,27.84-5.23a1.48,1.48,0,0,0,1.13-1A1.66,1.66,0,0,0,493.21,85Z"/></g></g></svg>